<svg id="Layer_1" data-name="Layer 1" xmlns="http://www.w3.org/2000/svg" viewBox="0 0 2461.43 491.21"><defs></defs><path d="M2470.54,133.3H2419V318.22L2270,133.3h-61.15V382.24h51.56V197.32l149,184.92h61.18Zm-500.91,0h-56.9L1790.41,382.22h56.9l15.3-32c6.38-13.51,16.35-19.57,31.29-19.57h92.47l-11-23.47c-6.76-14.59-17.78-21.33-34.13-21.33h-47.28l47.28-98.15,93.87,194.51H2092Zm-295.9,0h-53.35V382.22h53.35Zm-171,0h-56.9l-90.32,192.75L1265.19,133.3h-56.9l118.78,248.94H1384Zm-411.13,0h-53.35V382.22h53.35Zm-191.8,82.88c0-42-28.44-82.86-89.62-82.86H652V382.25H705.3V178.12h97.09c29.88,0,44.1,14.59,44.1,38.06,0,23.82-14.24,38.41-44.1,38.41h-41.3c-18.71,0-29.23,10.51-29.23,29.23v15.59h29.63c13.86,0,24.18,4.63,32.73,15.65l52.62,67.21h65.42L839,289.1c39.11-8.93,60.79-34.54,60.79-72.92Z" transform="translate(-9.11 -12.16)"></path><path class="cls-1" d="M281.14,310.68c12.78-11.67,35.29-33.5,43.67-43.29a15.06,15.06,0,0,0,0-19.47c-8.38-9.78-30.89-31.62-43.67-43.29-5.23-4.88-6.49-7.94-6.49-13.93V124.52c0-3.14,3-4.53,5.53-2.31,28.5,26.38,92,89.29,113.27,113.66,10.16,10.79,9.23,21.79,9.23,21.79s.93,11-9.23,21.78c-21.31,24.37-84.79,87.28-113.27,113.67-2.54,2.21-5.53.83-5.53-2.32V324.62c0-6,1.26-9.06,6.49-13.94Zm-37.48-.05C230.88,299,208.37,277.12,200,267.34a15,15,0,0,1,0-19.47c8.37-9.78,30.88-31.62,43.66-43.29,5.23-4.88,6.49-8,6.49-13.93V124.27c0-2.67-3.12-4.33-5.53-2.09-28.5,26.39-92,89.3-113.27,113.67-10.19,10.79-9.23,21.78-9.23,21.78s-.93,11,9.23,21.78c21.31,24.38,84.79,87.29,113.27,113.67,2.54,2.22,5.53.83,5.53-2.31V324.59c0-6-1.26-9.11-6.49-14ZM10.11,276.8C38.76,306.35,193.76,466.23,222.8,489.29a62.59,62.59,0,0,0,79.13,0C331,466.23,486,306.35,514.62,276.8a4.24,4.24,0,0,0-3.29-6.92c-14.31,0-47.49-.05-67.49-.05-7,0-9.13,1.23-13.56,6l-26.46,28.39c-28,30.21-96.36,96.92-121.34,118a30.38,30.38,0,0,1-40.29,0c-25-21.06-93.32-87.76-121.34-118L94.39,275.82c-4.43-4.76-6.52-6-13.56-6-20,0-53.17.05-67.49.05a4.24,4.24,0,0,0-3.24,6.92Zm504.55-38.06C486,209.19,331,49.31,302,26.25a62.59,62.59,0,0,0-79.13,0C193.79,49.31,38.76,209.19,10.11,238.74a4.25,4.25,0,0,0,3.3,6.92c14.31,0,47.49.05,67.48.05,7,0,9.14-1.23,13.56-6l26.46-28.4c28-30.21,96.37-96.91,121.34-117.94a30.36,30.36,0,0,1,40.3,0c25,21.05,93.32,87.76,121.34,117.94l26.46,28.4c4.43,4.76,6.51,6,13.56,6,20,0,53.17-.05,67.48-.05a4.23,4.23,0,0,0,3.27-6.92Z" transform="translate(-9.11 -12.16)"></path></svg>