<?xml version="1.0"?>

<svg version="1.1" id="Layer_1" xmlns="http://www.w3.org/2000/svg" xmlns:xlink="http://www.w3.org/1999/xlink" x="0px" y="0px" viewBox="0 0 2351 456.8" style="enable-background:new 0 0 2351 456.8;" xml:space="preserve">

<path class="st0" d="M539,111.3c5.3,20.5,23,41.5,47.4,46.8h73.7l3.8,1.5v185.9h46V159.5l4.2-1.5h73.7c24.7-6.4,42-26.2,47.2-46.8&#xA;&#x9;v-0.5H539L539,111.3"></path>
<path class="st0" d="M994.3,345.9h175c24.3-4.8,42.4-26.3,47.5-47.1h-270C951.8,319.6,970.2,341.1,994.3,345.9"></path>
<path class="st0" d="M994.3,250.6h175c24.3-4.8,42.4-26.3,47.5-47.1h-270C951.8,224.3,970.2,245.8,994.3,250.6"></path>
<path class="st0" d="M994.3,157.8h175c24.3-4.9,42.4-26.3,47.5-47.1h-270C951.8,131.5,970.2,152.9,994.3,157.8"></path>
<path class="st0" d="M1393.5,157.3h161.7c24.4-7.1,44.8-25.7,49.8-46.2h-256.8v138.8h210.2v48.7l-164.9,0.1&#xA;&#x9;c-25.8,7.2-47.8,24.6-58.7,47.5l13.4-0.2h255.4V203.7h-210.1V157.3"></path>
<path class="st0" d="M1943.8,346c23-9.7,35.3-26.6,40-46.3h-204.2l0.1-188.7l-45.8,0.1V346H1943.8"></path>
<path class="st0" d="M2122.1,157.9h175.1c24.3-4.8,42.4-26.3,47.5-47.1h-270.1C2079.6,131.7,2098,153.1,2122.1,157.9"></path>
<path class="st0" d="M2081.7,203.9v142h45.5v-94.6h165.7v94.5h45.5V204.1L2081.7,203.9"></path>
<path class="st0" d="M229.4,456.8l64.2-361c61.2,0,80.5,6.7,83.3,34.1c0,0,41-15.3,61.7-46.4c-80.8-37.4-161.9-39.1-161.9-39.1&#xA;&#x9;l-47.4,57.7h0.1l-47.4-57.7c0,0-81.2,1.7-161.9,39.1c20.7,31.1,61.7,46.4,61.7,46.4c2.8-27.4,22.1-34.1,82.8-34.1L229.4,456.8"></path>
<path class="st0" d="M229.4,27.8c65.3-0.5,140,10.1,216.5,43.4c10.2-18.4,12.9-26.5,12.9-26.5C375.1,11.6,296.8,0.3,229.4,0&#xA;&#x9;C161.9,0.3,83.6,11.6,0,44.7c0,0,3.7,10,12.8,26.5C89.3,37.9,164.1,27.3,229.4,27.8L229.4,27.8"></path>
</svg>